<svg width="8" height="14" viewBox="0 0 8 14" fill="none" xmlns="http://www.w3.org/2000/svg">
<path d="M8.00019 7.00019C8.00095 6.86858 7.97572 6.73812 7.92596 6.61628C7.87619 6.49444 7.80287 6.38363 7.71019 6.29019L1.71019 0.290185C1.52188 0.101882 1.26649 -0.00390625 1.00019 -0.00390625C0.733884 -0.00390625 0.478489 0.101882 0.290185 0.290185C0.101882 0.478489 -0.00390625 0.733884 -0.00390625 1.00019C-0.00390625 1.26649 0.101882 1.52188 0.290185 1.71019L5.59019 7.00019L0.300186 12.2902C0.136359 12.4815 0.0507528 12.7276 0.0604739 12.9792C0.0701951 13.2309 0.174528 13.4697 0.352623 13.6477C0.530717 13.8258 0.769456 13.9302 1.02113 13.9399C1.27281 13.9496 1.51888 13.864 1.71019 13.7002L7.71019 7.70019C7.89493 7.51392 7.99908 7.26253 8.00019 7.00019Z" fill="white" fill-opacity="0.6"/>
</svg>
