<svg width="8" height="14" viewBox="0 0 8 14" fill="none" xmlns="http://www.w3.org/2000/svg">
<path d="M-0.000185013 7.00019C-0.000946045 6.86858 0.0242791 6.73812 0.0740438 6.61628C0.123808 6.49444 0.197133 6.38363 0.289814 6.29019L6.28981 0.290185C6.47812 0.101882 6.73351 -0.00390625 6.99981 -0.00390625C7.26612 -0.00390625 7.52151 0.101882 7.70981 0.290185C7.89812 0.478489 8.00391 0.733884 8.00391 1.00019C8.00391 1.26649 7.89812 1.52188 7.70981 1.71019L2.40981 7.00019L7.69981 12.2902C7.86364 12.4815 7.94925 12.7276 7.93953 12.9792C7.9298 13.2309 7.82547 13.4697 7.64738 13.6477C7.46928 13.8258 7.23054 13.9302 6.97887 13.9399C6.72719 13.9496 6.48112 13.864 6.28981 13.7002L0.289814 7.70019C0.10507 7.51392 0.000919342 7.26253 -0.000185013 7.00019Z" fill="white" fill-opacity="0.6"/>
</svg>
