<svg width="29" height="28" viewBox="0 0 29 28" fill="none" xmlns="http://www.w3.org/2000/svg">
<g clip-path="url(#clip0_7010_1823)">
<g clip-path="url(#clip1_7010_1823)">
<path d="M27.3446 8.52816C26.0032 5.34275 23.5261 2.76942 20.3942 1.30772C17.2623 -0.153996 13.6989 -0.399794 10.3959 0.618036C7.09299 1.63586 4.28604 3.84471 2.52008 6.81573C0.754106 9.78679 0.155105 13.308 0.83937 16.6958C1.52364 20.0837 3.44235 23.0964 6.223 25.1491C9.00368 27.2018 12.4478 28.148 15.8869 27.8041C19.326 27.4602 22.5147 25.8507 24.8337 23.288C27.1529 20.7253 28.437 17.3923 28.4368 13.936C28.439 12.0784 28.0676 10.2393 27.3446 8.52816ZM26.9732 13.936C26.9735 14.9825 26.8415 16.0248 26.5802 17.038L23.8047 16.1365C24.1503 14.6628 24.1443 13.1286 23.7874 11.6576L26.5615 10.756C26.8352 11.7938 26.9736 12.8627 26.9732 13.936ZM14.5478 22.7233C12.8095 22.7248 11.1099 22.2106 9.66389 21.246C8.21787 20.2813 7.09045 18.9093 6.42426 17.3038C5.75805 15.6983 5.58301 13.9312 5.92125 12.2262C6.25949 10.5211 7.09584 8.9547 8.3245 7.72502C9.55309 6.49536 11.1189 5.65773 12.8236 5.31808C14.5284 4.97843 16.2956 5.15203 17.9017 5.81692C19.5078 6.4818 20.8807 7.60808 21.8465 9.05334C22.8124 10.4986 23.3279 12.1978 23.3279 13.936C23.3257 16.2659 22.3991 18.4996 20.7517 20.1471C19.1042 21.7945 16.8705 22.7211 14.5406 22.7233H14.5478ZM2.12247 13.936C2.12232 12.8632 2.26072 11.7948 2.53424 10.7575L5.30828 11.659C4.95137 13.13 4.94543 14.6642 5.29095 16.138L2.51401 17.0395C2.24809 16.0263 2.11168 14.9835 2.10802 13.936H2.12247ZM26.1179 9.369L23.3453 10.2705C22.8659 9.12426 22.1665 8.08319 21.2864 7.20612C21.0995 7.02022 20.9069 6.8425 20.7085 6.67298L22.4062 4.3165C24.0475 5.65946 25.32 7.39826 26.1034 9.369H26.1179ZM21.2344 3.45539L19.5223 5.81332C18.2404 5.02541 16.7882 4.55623 15.2876 4.44508V1.52656C17.3975 1.65122 19.4401 2.31535 21.22 3.45539H21.2344ZM13.8225 1.52656V4.44508C12.3219 4.55623 10.8698 5.02541 9.58778 5.81332L7.87571 3.45539C9.65553 2.31535 11.6982 1.65122 13.8081 1.52656H13.8225ZM6.68951 4.31505L8.39147 6.67298C8.19212 6.8425 7.99948 7.02022 7.81358 7.20612C6.93389 8.08288 6.23444 9.12348 5.75472 10.2691L2.98214 9.369C3.76488 7.39858 5.03564 5.65947 6.67507 4.31505H6.68951ZM2.96336 18.4309L5.73594 17.5307C6.21272 18.7042 6.91908 19.7706 7.81358 20.6674C7.98888 20.8428 8.16948 21.0098 8.35539 21.1688L6.64184 23.5267C4.99661 22.1706 3.72538 20.4165 2.94889 18.4309H2.96336ZM7.81358 24.3907L9.52568 22.0342C10.8182 22.8366 12.2853 23.3149 13.8023 23.4285V26.347C11.6705 26.2238 9.60706 25.5497 7.81358 24.3907ZM15.2659 26.347V23.4285C16.783 23.3161 18.2503 22.8382 19.5426 22.0357L21.2546 24.3921C19.4625 25.5494 17.4014 26.2228 15.2717 26.347H15.2659ZM22.4365 23.5281L20.7229 21.1702C20.9088 21.0094 21.0899 20.8417 21.2662 20.6674C22.1646 19.7718 22.8745 18.7053 23.354 17.5307L26.1266 18.4323C25.3529 20.4172 24.0847 22.1714 22.4423 23.5281H22.4365Z" fill="#F5B923"/>
<path d="M11.5963 10.4524C11.7111 10.4524 11.8234 10.4183 11.919 10.3545C12.0144 10.2907 12.0888 10.2001 12.1328 10.0939C12.1768 9.98785 12.1882 9.87109 12.1659 9.75843C12.1434 9.64578 12.0881 9.54234 12.0069 9.46112C11.9257 9.3799 11.8222 9.32462 11.7096 9.30216C11.5969 9.27979 11.4802 9.29125 11.3741 9.33522C11.268 9.3792 11.1773 9.45361 11.1135 9.54907C11.0497 9.64462 11.0156 9.75688 11.0156 9.87171C11.0159 10.0256 11.0771 10.1732 11.186 10.2821C11.2948 10.3909 11.4424 10.4522 11.5963 10.4524Z" fill="#F5B923"/>
<path d="M21.5771 14.9871C21.7686 14.9874 21.9566 14.9353 22.1207 14.8366C22.2848 14.7379 22.4187 14.5962 22.5082 14.427C22.5975 14.2576 22.6389 14.0672 22.6278 13.8761C22.6167 13.685 22.5535 13.5006 22.4452 13.3427C22.3368 13.1848 22.1874 13.0596 22.0129 12.9805C21.8386 12.9014 21.6459 12.8715 21.4556 12.8938C21.2654 12.9163 21.085 12.9902 20.9338 13.1078C20.7826 13.2252 20.6663 13.3818 20.5977 13.5605H15.9836C15.9152 13.2938 15.7763 13.0503 15.5815 12.8557C15.3867 12.6609 15.1431 12.5221 14.8763 12.4538V7.83786C15.1055 7.7499 15.2966 7.58457 15.4166 7.37052C15.5365 7.15647 15.5777 6.9072 15.5329 6.66597C15.4882 6.42474 15.3604 6.20678 15.1717 6.0499C14.9829 5.89302 14.7452 5.80713 14.4997 5.80713C14.2542 5.80713 14.0165 5.89302 13.8278 6.0499C13.639 6.20678 13.5112 6.42474 13.4664 6.66597C13.4218 6.9072 13.463 7.15647 13.5829 7.37052C13.7028 7.58457 13.894 7.7499 14.1232 7.83786V12.4493C13.8563 12.5177 13.6127 12.6565 13.4179 12.8512C13.2231 13.0459 13.0842 13.2893 13.0157 13.5561H8.4017C8.31359 13.3271 8.14806 13.1363 7.93387 13.0166C7.71969 12.8968 7.47034 12.8558 7.22906 12.9006C6.98778 12.9453 6.76978 13.0732 6.61289 13.2617C6.45601 13.4503 6.37012 13.6878 6.37012 13.9331C6.37012 14.1784 6.45601 14.416 6.61289 14.6046C6.76978 14.7931 6.98778 14.9209 7.22906 14.9657C7.47034 15.0105 7.71969 14.9695 7.93387 14.8497C8.14806 14.73 8.31359 14.5391 8.4017 14.3102H13.0157C13.0826 14.5778 13.2204 14.8224 13.4144 15.0184C13.6084 15.2145 13.8517 15.3547 14.1187 15.4244V20.0358C13.8895 20.1238 13.6983 20.2891 13.5784 20.5032C13.4585 20.7173 13.4173 20.9665 13.462 21.2078C13.5068 21.4489 13.6345 21.6669 13.8233 21.8238C14.0121 21.9807 14.2498 22.0666 14.4953 22.0666C14.7407 22.0666 14.9784 21.9807 15.1672 21.8238C15.3559 21.6669 15.4837 21.4489 15.5284 21.2078C15.5732 20.9665 15.532 20.7173 15.4121 20.5032C15.2921 20.2891 15.101 20.1238 14.8718 20.0358V15.4244C15.1387 15.356 15.3823 15.2172 15.5771 15.0225C15.7719 14.8278 15.9108 14.5844 15.9791 14.3176H20.5933C20.6703 14.5156 20.8056 14.6855 20.9812 14.805C21.1568 14.9245 21.3646 14.988 21.5771 14.9871Z" fill="#F5B923"/>
</g>
</g>
<defs>
<clipPath id="clip0_7010_1823">
<rect width="27.8733" height="27.8733" fill="white" transform="translate(0.563477)"/>
</clipPath>
<clipPath id="clip1_7010_1823">
<rect width="27.8733" height="27.8733" fill="white" transform="translate(0.563477)"/>
</clipPath>
</defs>
</svg>
