<svg width="29" height="28" viewBox="0 0 29 28" fill="none" xmlns="http://www.w3.org/2000/svg">
<g clip-path="url(#clip0_7010_1832)">
<g clip-path="url(#clip1_7010_1832)">
<g clip-path="url(#clip2_7010_1832)">
<path d="M27.7372 19.7989C27.7353 19.7838 27.7317 19.7689 27.7265 19.7545C27.7224 19.7395 27.7167 19.725 27.7092 19.7114C27.3549 18.7683 26.3911 18.0524 25.7139 17.3523C24.805 16.4129 23.9036 15.469 22.9658 14.5578C22.0629 13.6807 21.1453 12.8155 20.1972 11.9861C20.8971 11.5318 21.7459 10.981 21.8936 10.1385C22.0179 9.43045 21.5562 9.01034 21.103 8.57L21.4386 8.15664C21.8303 8.86365 22.2967 9.53546 22.8842 10.0936C23.1583 10.3542 23.8259 11.0669 24.2333 10.7456C24.5486 10.497 24.3132 10.1839 24.1505 9.92607C23.8852 9.50376 23.6036 9.09169 23.3004 8.6953C22.9194 8.19754 22.5053 7.72155 22.0299 7.31155C22.13 6.95128 22.0488 6.55729 21.6519 6.40367C21.3136 6.2726 21.0234 6.42477 20.7627 6.61913C20.2449 5.77438 19.6731 4.95152 18.9835 4.23751C18.7455 3.99119 18.0547 3.15667 17.6654 3.47139C17.2944 3.77125 17.764 4.36075 17.9267 4.65422C18.1785 5.11332 18.4702 5.54939 18.7984 5.9574C19.1691 6.41486 19.6003 6.83265 20.0949 7.15508L19.8712 7.33651C19.431 6.88321 19.0109 6.42157 18.3028 6.54575C17.4606 6.69348 16.91 7.54161 16.456 8.24155C15.4085 7.04177 14.304 5.88786 13.1818 4.75891C12.1509 3.72298 11.0981 2.70096 10.0395 1.69044C9.3963 1.07698 8.58584 0.347783 7.64203 0.776795C6.78075 1.16777 6.34922 2.22735 6.19371 3.09896C6.02541 4.04474 6.19115 5.01705 6.41283 5.94029C6.89726 7.95731 7.75696 9.88737 8.68605 11.7347C9.24702 12.8505 9.84351 13.9565 10.5011 15.0189L7.19133 18.7444C6.36856 18.0613 5.50454 17.4098 4.55325 16.9174C3.83084 16.5433 3.07118 16.2155 2.28995 16.6297C1.58671 17.0029 1.04794 17.8604 1.25779 18.6694C1.38358 19.1535 1.759 19.6019 2.05548 19.9931C2.3994 20.4438 2.76754 20.8754 3.15828 21.2859C3.62818 21.7829 4.1222 22.2637 4.64467 22.7071C4.41804 23.1005 4.06834 23.6444 4.43322 24.0093C4.7981 24.3742 5.34152 24.0253 5.73485 23.7979C6.08518 24.2098 6.45998 24.6028 6.84436 24.9823C7.62161 25.7495 8.49055 26.566 9.47221 27.0673C10.2319 27.4554 11.1221 27.0805 11.6188 26.4456C12.1847 25.7225 12.0362 24.9751 11.6788 24.202C11.1808 23.1253 10.4547 22.16 9.69889 21.2502L13.4228 17.9404C14.7996 18.7931 16.2434 19.5535 17.707 20.2434C18.9536 20.831 20.2322 21.3673 21.5528 21.7695C22.7346 22.1296 24.0511 22.4651 25.2909 22.2572C26.4728 22.0597 28.1 21.2374 27.7372 19.7989ZM22.6266 8.47873C22.8583 8.75144 23.0754 9.03575 23.2819 9.32764C23.3971 9.49015 23.509 9.65473 23.6175 9.82139C23.688 9.92912 23.966 10.252 23.942 10.3713C23.921 10.4758 23.9637 10.3968 23.8796 10.3826C23.8477 10.3773 23.8018 10.3327 23.7752 10.3151C23.6819 10.2528 23.5913 10.1867 23.5035 10.1169C23.2999 9.95375 23.1083 9.77614 22.9301 9.58544C22.4356 9.06148 22.0426 8.4567 21.7026 7.82404L21.8305 7.65796C22.1145 7.91284 22.3805 8.1871 22.6266 8.47873ZM21.6342 7.27545L21.3291 7.67326L20.8251 8.29425C20.599 8.06828 20.373 7.84219 20.147 7.61609L20.571 7.2724L20.8484 7.04734C20.9297 6.98135 21.0098 6.90033 21.1006 6.84802C21.4511 6.64597 21.8321 6.8285 21.6342 7.27545ZM19.3282 5.97769C19.0551 5.6738 18.8077 5.34767 18.5887 5.00266C18.4625 4.80606 18.3438 4.60487 18.2328 4.39911C18.2032 4.34476 17.8847 3.7615 17.8684 3.78564C17.9026 3.73481 18.8817 4.70137 18.9419 4.76866C19.5173 5.41234 20.005 6.12875 20.4542 6.865L20.4165 6.89566C20.0089 6.64746 19.6493 6.33078 19.3282 5.97769ZM7.18737 7.21659C6.62156 5.50073 5.98865 3.24138 7.20112 1.64617C7.47661 1.28365 7.87429 0.992898 8.34976 1.04277C8.87397 1.09775 9.30503 1.53748 9.66979 1.87938C10.6655 2.81253 11.6411 3.77701 12.608 4.74053C13.8489 5.97658 15.0677 7.24382 16.2185 8.56553L11.3154 14.1005C11.1342 14.3048 10.9531 14.5092 10.7719 14.7136C9.32487 12.3673 8.04944 9.83098 7.18737 7.21659ZM11.5488 25.7917C11.3592 26.2956 10.8764 26.7239 10.3425 26.8203C9.73688 26.9295 9.19698 26.4598 8.74245 26.1218C8.25291 25.7575 7.79326 25.3527 7.35196 24.9311C6.84948 24.4505 6.36105 23.9467 5.91641 23.4126C5.85951 23.3442 5.75147 23.3444 5.67923 23.382L5.32633 23.5646C5.24546 23.6067 5.16507 23.6502 5.08355 23.691C4.94211 23.7614 4.93891 23.7991 4.79107 23.6513C4.64723 23.5075 4.67248 23.5189 4.73976 23.3815C4.77813 23.3031 4.81968 23.2264 4.8606 23.1491L5.06118 22.763C5.09842 22.6915 5.09858 22.5823 5.03065 22.5257C4.49571 22.0805 3.99178 21.5926 3.5123 21.09C3.09084 20.6491 2.68584 20.1895 2.32175 19.6994C1.98357 19.2448 1.51399 18.705 1.62315 18.0992C1.71905 17.5654 2.14802 17.0825 2.65164 16.8927C3.11513 16.7185 3.54011 16.8758 3.96781 17.067C5.10817 17.5767 6.12355 18.3545 7.07433 19.1529C7.15153 19.2178 7.27605 19.2375 7.35118 19.1529C8.52834 17.828 9.70576 16.5031 10.8833 15.178C12.5578 13.2876 14.2323 11.3969 15.9069 9.50583L16.6168 8.70444C16.6225 8.69744 16.6279 8.69012 16.6327 8.68253C16.6381 8.6769 16.6429 8.671 16.6475 8.66477C16.7913 8.44658 16.9456 8.23416 17.1017 8.02427C17.4234 7.59159 17.749 7.07178 18.3113 6.94408C18.9506 6.79895 19.3182 7.34209 19.7168 7.74029L20.7017 8.72408C21.0996 9.12222 21.6427 9.49131 21.4975 10.1297C21.374 10.6732 20.8845 10.9897 20.466 11.303C20.2405 11.4719 20.0122 11.6386 19.777 11.7937C19.7708 11.7982 19.7649 11.8031 19.7593 11.8084C19.7517 11.8133 19.7444 11.8186 19.7374 11.8244L14.0653 16.8501L13.264 17.5601L9.28941 21.0926C9.20547 21.1671 9.22543 21.2924 9.28941 21.3696C10.0885 22.3203 10.8654 23.3356 11.3751 24.4762C11.5663 24.904 11.7237 25.3272 11.5488 25.7917ZM24.7824 21.9245C23.606 21.9936 22.379 21.6328 21.2729 21.271C19.0297 20.5373 16.8912 19.4737 14.8394 18.3159C14.4665 18.1058 14.095 17.8921 13.7292 17.6694L19.2125 12.8112L19.8756 12.2236C20.7759 13.0085 21.6475 13.8284 22.5062 14.6579C23.4067 15.5276 24.2875 16.4169 25.1485 17.3257C25.5529 17.753 25.9741 18.1633 26.3833 18.5859C26.7416 18.9561 27.1733 19.3618 27.349 19.8588C27.7325 21.2353 25.8161 21.864 24.7824 21.9245Z" fill="#F5B923"/>
<path d="M27.7372 19.7989C27.7353 19.7838 27.7317 19.7689 27.7265 19.7545C27.7224 19.7395 27.7167 19.725 27.7092 19.7114C27.3549 18.7683 26.3911 18.0524 25.7139 17.3523C24.805 16.4129 23.9036 15.469 22.9658 14.5578C22.0629 13.6807 21.1453 12.8155 20.1972 11.9861C20.8971 11.5318 21.7459 10.981 21.8936 10.1385C22.0179 9.43045 21.5562 9.01034 21.103 8.57L21.4386 8.15664C21.8303 8.86365 22.2967 9.53546 22.8842 10.0936C23.1583 10.3542 23.8259 11.0669 24.2333 10.7456C24.5486 10.497 24.3132 10.1839 24.1505 9.92607C23.8852 9.50376 23.6036 9.09169 23.3004 8.6953C22.9194 8.19754 22.5053 7.72155 22.0299 7.31156C22.13 6.95128 22.0488 6.55729 21.6519 6.40367C21.3136 6.2726 21.0234 6.42477 20.7627 6.61913C20.2449 5.77438 19.6731 4.95152 18.9835 4.23751C18.7455 3.99119 18.0547 3.15667 17.6654 3.47139C17.2944 3.77125 17.764 4.36075 17.9267 4.65422C18.1785 5.11332 18.4702 5.54939 18.7984 5.9574C19.1691 6.41486 19.6003 6.83265 20.0949 7.15508L19.8712 7.33651C19.431 6.88321 19.0109 6.42157 18.3028 6.54575C17.4606 6.69348 16.91 7.54161 16.456 8.24155C15.4085 7.04177 14.304 5.88786 13.1818 4.75891C12.1509 3.72298 11.0981 2.70096 10.0395 1.69044C9.3963 1.07698 8.58584 0.347783 7.64203 0.776795C6.78075 1.16777 6.34922 2.22735 6.19371 3.09896C6.02541 4.04474 6.19115 5.01705 6.41283 5.94029C6.89726 7.95731 7.75696 9.88737 8.68605 11.7347C9.24702 12.8505 9.84351 13.9565 10.5011 15.0189L7.19133 18.7444C6.36856 18.0613 5.50454 17.4098 4.55325 16.9174C3.83083 16.5433 3.07118 16.2155 2.28995 16.6297C1.58671 17.0029 1.04794 17.8604 1.25779 18.6694C1.38358 19.1535 1.759 19.6019 2.05548 19.9931C2.3994 20.4438 2.76754 20.8754 3.15828 21.2859C3.62818 21.7829 4.1222 22.2637 4.64467 22.7071C4.41804 23.1005 4.06834 23.6444 4.43322 24.0093C4.7981 24.3742 5.34152 24.0253 5.73485 23.7979C6.08518 24.2098 6.45998 24.6028 6.84436 24.9823C7.62162 25.7495 8.49055 26.566 9.47221 27.0673C10.2319 27.4554 11.1221 27.0805 11.6188 26.4456C12.1847 25.7225 12.0362 24.9751 11.6788 24.202C11.1808 23.1253 10.4547 22.16 9.69889 21.2502L13.4228 17.9404C14.7996 18.7931 16.2434 19.5535 17.707 20.2434C18.9536 20.831 20.2322 21.3673 21.5528 21.7695C22.7346 22.1296 24.0511 22.4651 25.2909 22.2572C26.4728 22.0597 28.1 21.2374 27.7372 19.7989ZM22.6266 8.47873C22.8583 8.75144 23.0754 9.03575 23.2819 9.32764C23.3971 9.49015 23.509 9.65473 23.6175 9.82139C23.688 9.92912 23.966 10.252 23.942 10.3713C23.921 10.4758 23.9637 10.3968 23.8796 10.3826C23.8477 10.3773 23.8018 10.3327 23.7752 10.3151C23.6819 10.2528 23.5913 10.1867 23.5035 10.1169C23.2999 9.95375 23.1083 9.77614 22.9301 9.58544C22.4356 9.06148 22.0426 8.4567 21.7026 7.82404L21.8305 7.65796C22.1145 7.91284 22.3805 8.1871 22.6266 8.47873ZM21.6342 7.27545L21.3291 7.67326L20.8251 8.29425C20.599 8.06828 20.373 7.84219 20.147 7.61609L20.571 7.2724L20.8484 7.04734C20.9297 6.98135 21.0098 6.90033 21.1006 6.84802C21.4511 6.64597 21.8321 6.8285 21.6342 7.27545ZM19.3282 5.97769C19.0551 5.6738 18.8077 5.34767 18.5887 5.00266C18.4625 4.80606 18.3438 4.60487 18.2328 4.39911C18.2032 4.34476 17.8847 3.7615 17.8684 3.78564C17.9026 3.73481 18.8817 4.70137 18.9419 4.76866C19.5173 5.41234 20.005 6.12875 20.4542 6.865L20.4165 6.89566C20.0089 6.64746 19.6493 6.33078 19.3282 5.97769ZM7.18737 7.21659C6.62156 5.50073 5.98865 3.24138 7.20112 1.64617C7.47661 1.28365 7.87429 0.992898 8.34976 1.04277C8.87397 1.09775 9.30503 1.53748 9.66979 1.87938C10.6655 2.81253 11.6411 3.77701 12.608 4.74053C13.8489 5.97658 15.0677 7.24382 16.2185 8.56553L11.3154 14.1005C11.1342 14.3048 10.9531 14.5092 10.772 14.7136C9.32487 12.3673 8.04944 9.83098 7.18737 7.21659ZM11.5488 25.7917C11.3592 26.2956 10.8764 26.7239 10.3425 26.8203C9.73688 26.9295 9.19698 26.4598 8.74245 26.1218C8.25291 25.7575 7.79326 25.3527 7.35196 24.9311C6.84948 24.4505 6.36105 23.9467 5.91641 23.4126C5.85951 23.3442 5.75147 23.3444 5.67923 23.382L5.32633 23.5646C5.24546 23.6067 5.16507 23.6502 5.08355 23.691C4.94211 23.7614 4.93891 23.7991 4.79107 23.6513C4.64723 23.5075 4.67248 23.5189 4.73976 23.3815C4.77813 23.3031 4.81968 23.2264 4.8606 23.1491L5.06118 22.763C5.09842 22.6915 5.09858 22.5823 5.03065 22.5257C4.49571 22.0805 3.99178 21.5926 3.5123 21.09C3.09084 20.6491 2.68584 20.1895 2.32175 19.6994C1.98357 19.2448 1.51399 18.705 1.62315 18.0992C1.71905 17.5654 2.14802 17.0825 2.65164 16.8927C3.11513 16.7185 3.54011 16.8758 3.96781 17.067C5.10817 17.5767 6.12355 18.3545 7.07432 19.1529C7.15153 19.2178 7.27605 19.2375 7.35118 19.1529C8.52834 17.828 9.70576 16.5031 10.8833 15.178C12.5578 13.2876 14.2323 11.3969 15.9069 9.50583L16.6168 8.70444C16.6225 8.69744 16.6279 8.69012 16.6327 8.68253C16.6381 8.6769 16.6429 8.671 16.6475 8.66477C16.7913 8.44658 16.9456 8.23416 17.1017 8.02427C17.4234 7.59159 17.749 7.07178 18.3113 6.94408C18.9506 6.79895 19.3182 7.34209 19.7168 7.74029L20.7017 8.72408C21.0996 9.12222 21.6427 9.49131 21.4975 10.1297C21.374 10.6732 20.8845 10.9897 20.466 11.303C20.2405 11.4719 20.0122 11.6386 19.777 11.7937C19.7708 11.7982 19.7649 11.8031 19.7593 11.8084C19.7517 11.8133 19.7444 11.8186 19.7374 11.8244L14.0653 16.8501L13.264 17.5601L9.28941 21.0926C9.20547 21.1671 9.22543 21.2924 9.28941 21.3696C10.0885 22.3203 10.8654 23.3356 11.3751 24.4762C11.5663 24.904 11.7237 25.3272 11.5488 25.7917ZM24.7824 21.9245C23.606 21.9936 22.379 21.6328 21.2729 21.271C19.0297 20.5373 16.8912 19.4737 14.8394 18.3159C14.4665 18.1058 14.095 17.8921 13.7292 17.6694L19.2125 12.8112L19.8756 12.2236C20.7759 13.0085 21.6475 13.8284 22.5062 14.6579C23.4067 15.5276 24.2875 16.4169 25.1485 17.3257C25.5529 17.753 25.9741 18.1633 26.3833 18.5859C26.7416 18.9561 27.1733 19.3618 27.349 19.8588C27.7325 21.2353 25.8161 21.864 24.7824 21.9245Z" stroke="#F5B923" stroke-width="0.648217"/>
<path d="M16.3696 10.3705L18.6074 12.0628L18.7694 12.0588C18.7363 10.7334 17.7031 9.70098 16.3775 9.6676C16.2706 9.665 16.178 9.70642 16.1147 9.77889C16.0547 9.84767 16.0293 9.93447 16.0293 10.0146C16.0294 10.0949 16.0549 10.1809 16.1128 10.2499C16.1733 10.3222 16.2628 10.3677 16.3696 10.3705Z" fill="#F5B923" stroke="#F5B923" stroke-width="0.324109"/>
</g>
</g>
</g>
<defs>
<clipPath id="clip0_7010_1832">
<rect width="27.8733" height="28" fill="white" transform="translate(0.563477)"/>
</clipPath>
<clipPath id="clip1_7010_1832">
<rect width="27.8733" height="27.8733" fill="white" transform="translate(0.563477)"/>
</clipPath>
<clipPath id="clip2_7010_1832">
<rect width="27.8733" height="27.8733" fill="white" transform="translate(0.563477)"/>
</clipPath>
</defs>
</svg>
