<svg width="37" height="28" viewBox="0 0 37 28" fill="none" xmlns="http://www.w3.org/2000/svg">
<g clip-path="url(#clip0_7010_1813)">
<g clip-path="url(#clip1_7010_1813)">
<g clip-path="url(#clip2_7010_1813)">
<path fill-rule="evenodd" clip-rule="evenodd" d="M12.5183 23.6102C10.1237 22.9153 8.00281 22.6952 6.01268 23.0455C6.82708 23.0583 7.58254 23.1568 8.28923 23.3018C9.28271 23.5057 10.177 23.8014 10.9773 24.066C11.0392 24.0864 11.1006 24.1068 11.1614 24.1268C12.0223 24.4106 12.7533 24.6391 13.4398 24.7084L13.4684 26.0595L13.3901 25.3858C12.7143 25.3175 12.0116 25.1096 11.2538 24.863C11.1125 24.817 10.9693 24.7697 10.824 24.7216C8.78031 24.0461 6.32055 23.233 2.9324 24.1C2.12347 24.307 1.26161 24.6097 0.339844 25.033C1.14054 24.3915 1.94139 23.8665 2.75149 23.4506C5.7681 21.9014 8.91309 21.8637 12.6574 22.9502C16.3641 24.026 19.8963 24.4392 22.7739 23.5378C23.4337 23.3311 24.059 23.0553 24.6443 22.7025C24.1987 23.2108 23.6464 23.7055 23.0076 24.1678C19.6881 26.57 14.033 28.0975 8.888 26.1207C8.15637 25.8396 7.43509 25.4876 6.73225 25.0573C7.50803 25.2534 8.27884 25.3767 9.006 25.4504C9.79879 25.5307 10.5397 25.5519 11.1786 25.544C12.5038 25.5276 13.3901 25.3858 13.3901 25.3858C13.4684 26.0595 13.4684 26.0595 13.4684 26.0595L13.4669 26.0596L13.4643 26.06L13.4555 26.0615C13.4482 26.0626 13.4376 26.0642 13.4241 26.0662C13.3969 26.0701 13.3576 26.0757 13.3071 26.0823C13.2058 26.0957 13.0592 26.1135 12.8735 26.1319C12.6125 26.1579 12.2738 26.1853 11.8747 26.2037C13.5835 26.452 15.2957 26.3683 16.9058 26.0465C18.426 25.7427 19.8375 25.2303 21.0543 24.5994C18.4449 24.9394 15.5045 24.4768 12.5183 23.6102Z" fill="#F5B923"/>
<path d="M12.5183 23.6102L12.6472 22.999M12.5183 23.6102C10.1237 22.9153 8.00281 22.6952 6.01268 23.0455C6.82708 23.0583 7.58254 23.1568 8.28923 23.3018C9.28271 23.5057 10.177 23.8014 10.9773 24.066C11.0392 24.0864 11.1006 24.1068 11.1614 24.1268C12.0223 24.4106 12.7533 24.6391 13.4398 24.7084L13.4684 26.0595M12.5183 23.6102C15.5045 24.4768 18.4449 24.9394 21.0543 24.5994C19.8375 25.2303 18.426 25.7427 16.9058 26.0465C15.2957 26.3683 13.5835 26.452 11.8747 26.2037C12.2738 26.1853 12.6125 26.1579 12.8735 26.1319C13.0592 26.1135 13.2058 26.0957 13.3071 26.0823C13.3576 26.0757 13.3969 26.0701 13.4241 26.0662C13.4376 26.0642 13.4482 26.0626 13.4555 26.0615L13.4643 26.06L13.4669 26.0596L13.4684 26.0595M13.4684 26.0595L13.3901 25.3858M13.4684 26.0595C13.4684 26.0595 13.4684 26.0595 13.3901 25.3858M13.3901 25.3858C12.7143 25.3175 12.0116 25.1096 11.2538 24.863C11.1125 24.817 10.9693 24.7697 10.824 24.7216C8.78031 24.0461 6.32055 23.233 2.9324 24.1C2.12347 24.307 1.26161 24.6097 0.339844 25.033C1.14054 24.3915 1.94139 23.8665 2.75149 23.4506C5.7681 21.9014 8.91309 21.8637 12.6574 22.9502C16.3641 24.026 19.8963 24.4392 22.7739 23.5378C23.4337 23.3311 24.059 23.0553 24.6443 22.7025C24.1987 23.2108 23.6464 23.7055 23.0076 24.1678C19.6881 26.57 14.033 28.0975 8.888 26.1207C8.15637 25.8396 7.43509 25.4876 6.73225 25.0573C7.50803 25.2534 8.27885 25.3767 9.006 25.4504C9.79879 25.5307 10.5397 25.5519 11.1786 25.544C12.5038 25.5276 13.3901 25.3858 13.3901 25.3858Z" stroke="#F5B923" stroke-width="0.844646"/>
<path fill-rule="evenodd" clip-rule="evenodd" d="M33.5466 8.44798C33.4099 8.09633 33.3333 7.63777 33.2904 7.31668C33.2682 7.15054 33.2528 7.00206 33.2426 6.89334L32.1459 5.15669L31.316 3.84959L31.8891 3.48767C32.0931 3.35888 32.2411 3.24451 32.3663 3.05974C32.2766 3.09436 32.1894 3.12608 32.1057 3.15658C32.0791 3.16626 32.0529 3.17582 32.0269 3.1853C31.5207 3.37087 31.1157 3.53797 30.7253 3.98557L30.5367 4.20175L30.2712 4.1766C23.6938 3.55362 20.4375 8.01121 19.5082 9.28342C19.4754 9.32818 19.4456 9.36915 19.4186 9.40564C18.8338 10.1977 18.3224 11.0459 17.8169 11.9189C17.7066 12.1091 17.5963 12.3013 17.4855 12.4944C17.0932 13.1779 16.6944 13.8729 16.2703 14.5361C15.172 16.2538 13.8538 17.8431 11.8029 18.8138L11.8009 18.8147L11.7988 18.8157C10.7096 19.32 9.58992 19.7322 8.44846 20.0489L8.44635 20.0494L8.44441 20.05C8.21306 20.1121 7.99472 20.1809 7.78891 20.2544C8.36146 20.2338 8.93937 20.2566 9.51812 20.3092C11.0811 20.4515 12.6942 20.8188 14.2565 21.1744C14.4978 21.2294 14.738 21.2841 14.9765 21.3376C16.7809 21.7425 18.4998 22.0832 20.0843 22.0483C21.6391 22.0142 23.0251 21.6185 24.2074 20.5953C26.0252 18.3012 28.5681 17.4615 30.236 17.7086L30.7067 17.7784L30.7369 18.3222C30.7563 18.6727 30.6738 19.0451 30.5625 19.3759C30.4472 19.7187 30.2816 20.0734 30.0872 20.4057C29.7846 20.9232 29.3695 21.4577 28.8995 21.7972C28.8556 22.0406 28.7483 22.252 28.5904 22.4145C28.3626 22.6486 28.0818 22.7286 27.88 22.7365C27.7463 22.7418 27.5881 22.7049 27.4905 22.6807C27.37 22.6509 27.2365 22.6115 27.1162 22.5739C27.0873 22.565 27.0588 22.5559 27.031 22.547C26.5698 23.2477 26.327 24.0042 26.2003 24.6238C26.1909 24.6698 26.1822 24.715 26.174 24.7594C26.6585 24.48 27.0649 24.1837 27.3799 23.9265C27.6249 23.7264 27.813 23.5514 27.938 23.4283C28.0005 23.3668 28.047 23.3185 28.0769 23.2867C28.0919 23.2708 28.1026 23.2591 28.1091 23.252C28.1123 23.2485 28.1145 23.246 28.1156 23.2448L28.1162 23.2442L28.7 22.5804L29.0113 23.3572C29.0205 23.3546 29.0305 23.3518 29.0414 23.3483C29.0919 23.3322 29.148 23.3084 29.204 23.2808C29.2147 23.2756 29.2251 23.2703 29.2352 23.2651C30.1934 20.7938 31.2849 19.1614 31.9551 18.2993C31.9715 18.2781 32.0115 18.1815 31.9974 17.9578C31.9921 17.8745 31.9806 17.7963 31.9691 17.7343L31.3896 16.9456C30.2202 16.3095 28.5442 16.0799 26.8028 16.1277C25.0249 16.1764 23.2654 16.5114 22.075 16.9108L21.6104 15.7142L21.9135 16.2763C22.8837 15.9507 24.2001 15.6704 25.5991 15.5394C25.775 15.5229 25.9522 15.5088 26.1302 15.4973C28.1613 15.3655 30.2944 15.5683 31.7515 16.413L32.4931 17.4223C32.4931 17.4223 32.7387 18.2843 32.3846 18.7394C31.7291 19.5828 30.6294 21.2272 29.6798 23.7466C29.6798 23.7466 29.2589 24.0305 28.9523 24.0284C28.8691 24.0279 28.7992 24.0044 28.7416 23.9706C28.587 23.8799 28.5207 23.7146 28.5207 23.7146C28.5207 23.7146 28.3667 23.8896 28.0785 24.1513C27.6662 24.5254 26.9795 25.0764 26.0761 25.5451C25.8903 25.6415 25.6955 25.7343 25.4919 25.8215C25.4919 25.8215 25.4854 25.5371 25.5393 25.0906C25.6372 24.2805 25.9338 22.9365 26.8286 21.7901C26.8286 21.7901 27.6542 22.0839 27.8603 22.0758C28.0665 22.0677 28.419 21.9011 28.333 21.3938C29.0529 21.0527 29.7993 19.9071 30.0639 19.0164C30.0802 18.9615 30.0946 18.9076 30.1072 18.8548C30.1502 18.6736 30.1701 18.5066 30.1623 18.3643C28.6788 18.1444 26.2978 18.9093 24.5986 21.0841C21.7867 23.5621 17.9975 22.6998 14.1409 21.8222C11.364 21.1902 8.5521 20.5503 6.04471 21.1435C5.50687 21.2707 4.98304 21.4548 4.47656 21.7077C4.48885 21.7016 4.51976 21.6678 4.57066 21.6121C4.74331 21.4232 5.14594 20.9827 5.83187 20.5195C6.431 20.1149 7.24624 19.6929 8.31315 19.4063C9.42732 19.0972 10.5204 18.6949 11.5835 18.2026C14.2417 16.9444 15.603 14.5729 16.9999 12.1391C17.6149 11.0676 18.2369 9.98397 18.9795 8.97791C19.0065 8.94133 19.0365 8.90037 19.0695 8.85535C20.0214 7.5524 23.4449 2.86671 30.3186 3.51775C30.8331 2.9278 31.3764 2.72926 31.9121 2.53349C32.1734 2.438 32.433 2.34318 32.6865 2.20391C32.9138 2.079 33.1364 1.91836 33.3511 1.68945C33.3079 2.07355 33.2478 2.39059 33.1746 2.65507C33.0356 3.15649 32.8493 3.46897 32.6406 3.69134C32.491 3.8507 32.3299 3.96378 32.1666 4.06694L32.6119 4.76831L33.2175 5.72615L33.8011 6.65155C33.8011 6.65155 33.8666 7.64952 34.0722 8.17796C34.3944 9.00468 35.9713 12.0272 35.9713 12.0272C36.0574 12.236 36.1631 12.4209 36.2596 12.5902C36.5016 13.0141 36.6871 13.339 36.3677 13.6882C36.2067 13.8666 36.2212 13.9748 36.2432 14.1386L36.2452 14.1539C36.2593 14.2589 35.3829 14.6126 35.0766 14.6883C34.2854 14.8834 33.7416 14.5186 33.4685 13.9744C33.4622 13.9621 33.4562 13.9497 33.4503 13.9372C33.4462 13.9284 33.4421 13.9195 33.4381 13.9106C33.3167 13.6422 33.2583 13.3354 33.2656 13.0331C33.27 12.8505 33.2983 12.6697 33.3511 12.4997L32.8529 12.1681L33.8933 12.7216C33.7911 13.0506 33.8402 13.4555 34.0173 13.7325C34.1682 13.9684 34.4469 14.1673 34.9554 14.0421C35.0675 14.0143 35.3325 13.92 35.5773 13.8137C35.6124 13.7985 35.6453 13.7838 35.6758 13.7697C35.7193 13.5523 35.8215 13.3837 35.9368 13.2479C35.9017 13.1696 35.8536 13.0853 35.78 12.9559C35.7677 12.9345 35.7548 12.9118 35.7411 12.8877C35.6569 12.7394 35.554 12.5538 35.4637 12.3407L35.4593 12.3323C35.4476 12.3097 35.4304 12.2766 35.4084 12.2343C35.3644 12.1496 35.3013 12.0278 35.2246 11.879C35.0711 11.5817 34.8631 11.1763 34.6447 10.7447C34.2168 9.89891 33.7232 8.90088 33.5466 8.44798ZM33.1991 12.9687C33.2547 12.6906 33.3511 12.4997 33.3511 12.4997C32.8529 12.1681 32.8529 12.1681 32.8529 12.1681L32.8525 12.1691L32.852 12.17L32.8509 12.1723L32.8482 12.1778C32.8462 12.1817 32.8438 12.1866 32.8412 12.1923C32.8358 12.2037 32.8289 12.2183 32.8211 12.236C32.8054 12.2714 32.7853 12.3194 32.7635 12.3781C32.745 12.428 32.7247 12.4869 32.7048 12.5534C32.0362 12.0585 31.3548 11.7971 30.7895 11.5802C30.72 11.5535 30.6524 11.5276 30.5866 11.5019C30.1215 11.3203 29.7913 11.1699 29.5511 10.9618C29.3414 10.7801 29.1885 10.5435 29.1191 10.1255L29.1189 10.1238C29.1181 10.1185 29.1168 10.1085 29.1151 10.0941C29.1118 10.0655 29.1072 10.0198 29.103 9.96023C29.0949 9.84046 29.0893 9.66807 29.1007 9.46628C29.124 9.0557 29.2149 8.5669 29.4597 8.14671L28.5989 7.28477C28.5394 7.34534 27.3272 8.58092 27.5397 10.4694C25.9182 11.4863 25.1844 13.0043 25.0204 14.5615C23.9577 14.734 23.1584 14.9862 22.6009 15.2114C22.2822 15.3402 22.043 15.4599 21.8791 15.5504C21.7972 15.5957 21.7342 15.6337 21.6896 15.6618C21.6673 15.6759 21.6496 15.6875 21.6363 15.6964C21.634 15.698 21.6318 15.6995 21.6297 15.701C21.626 15.7034 21.6227 15.7056 21.62 15.7075L21.6179 15.7089C21.6167 15.7098 21.6154 15.7107 21.6143 15.7114L21.6122 15.713L21.6104 15.7142C21.6104 15.7142 21.6104 15.7142 21.9135 16.2763C21.9135 16.2763 23.0404 15.4753 25.5607 15.1491C25.5624 15.0589 25.5662 14.9688 25.5719 14.8786C25.6689 13.3523 26.3601 11.835 28.1101 10.8771C28.1373 10.8622 28.1645 10.8475 28.1921 10.833C28.1495 10.6627 28.1218 10.4975 28.1065 10.338C28.1064 10.3366 28.1063 10.3352 28.1061 10.3337C27.9638 8.82629 28.9324 7.82882 28.9811 7.77918C28.3397 8.88035 28.5523 10.2419 28.5523 10.2419C28.5785 10.4021 28.6149 10.5469 28.6607 10.6787C28.7132 10.83 28.778 10.9641 28.8537 11.0839C29.2274 11.6758 29.8655 11.9217 30.596 12.2031C31.2276 12.4465 31.9283 12.7166 32.5866 13.2598C32.6255 13.2917 32.664 13.3246 32.7025 13.3586C32.9163 13.5473 33.125 13.7669 33.3244 14.026C33.1273 13.6578 33.1403 13.2641 33.1991 12.9687Z" fill="#F5B923"/>
<path d="M21.9135 16.2763L21.6104 15.7142M21.9135 16.2763C22.8837 15.9507 24.2001 15.6704 25.5991 15.5394C25.775 15.5229 25.9522 15.5088 26.1302 15.4973C28.1613 15.3655 30.2944 15.5683 31.7515 16.413L32.4931 17.4223C32.4931 17.4223 32.7387 18.2843 32.3846 18.7394C31.7291 19.5828 30.6294 21.2272 29.6798 23.7466C29.6798 23.7466 29.2589 24.0305 28.9523 24.0284C28.8691 24.0279 28.7992 24.0044 28.7416 23.9706C28.587 23.8799 28.5207 23.7146 28.5207 23.7146C28.5207 23.7146 28.3667 23.8896 28.0785 24.1513C27.6662 24.5254 26.9795 25.0764 26.0761 25.5451C25.8903 25.6415 25.6955 25.7343 25.4919 25.8215C25.4919 25.8215 25.4854 25.5371 25.5393 25.0906C25.6372 24.2805 25.9338 22.9365 26.8286 21.7901C26.8286 21.7901 27.6542 22.0839 27.8603 22.0758C28.0665 22.0677 28.419 21.9011 28.333 21.3938C29.0528 21.0527 29.7993 19.9071 30.0639 19.0164C30.0802 18.9615 30.0946 18.9076 30.1072 18.8548C30.1502 18.6736 30.1701 18.5066 30.1623 18.3643C28.6788 18.1444 26.2978 18.9093 24.5986 21.0841C21.7867 23.5621 17.9975 22.6998 14.1409 21.8222C11.364 21.1902 8.5521 20.5503 6.04471 21.1435C5.50687 21.2707 4.98304 21.4548 4.47656 21.7077C4.48885 21.7016 4.51976 21.6678 4.57066 21.6121C4.74331 21.4232 5.14594 20.9827 5.83187 20.5195C6.431 20.1149 7.24624 19.6929 8.31315 19.4063C9.42732 19.0972 10.5204 18.6949 11.5835 18.2026C14.2417 16.9444 15.603 14.5729 16.9999 12.1391C17.6149 11.0676 18.2369 9.98397 18.9795 8.97791C19.0065 8.94133 19.0365 8.90037 19.0695 8.85535C20.0214 7.5524 23.4449 2.86671 30.3186 3.51775C30.8331 2.9278 31.3764 2.72926 31.9121 2.53349C32.1734 2.438 32.433 2.34318 32.6865 2.20391C32.9138 2.079 33.1364 1.91836 33.3511 1.68945C33.3079 2.07355 33.2478 2.39059 33.1746 2.65507C33.0356 3.15649 32.8493 3.46897 32.6406 3.69134C32.491 3.8507 32.3299 3.96378 32.1666 4.06694L32.6119 4.76831L33.2175 5.72615L33.8011 6.65155C33.8011 6.65155 33.8666 7.64952 34.0722 8.17796C34.3944 9.00468 35.9713 12.0272 35.9713 12.0272C36.0574 12.236 36.1631 12.4209 36.2596 12.5902C36.5016 13.0141 36.6871 13.339 36.3677 13.6882C36.2067 13.8666 36.2212 13.9748 36.2432 14.1386L36.2452 14.1539C36.2593 14.2589 35.3829 14.6126 35.0766 14.6883C34.2854 14.8834 33.7416 14.5186 33.4685 13.9744C33.4622 13.9621 33.4562 13.9497 33.4503 13.9372C33.4462 13.9284 33.4421 13.9195 33.4381 13.9106C33.3167 13.6422 33.2583 13.3354 33.2656 13.0331C33.27 12.8505 33.2983 12.6697 33.3511 12.4997M21.9135 16.2763C21.6104 15.7142 21.6104 15.7142 21.6104 15.7142M21.9135 16.2763C21.9135 16.2763 23.0404 15.4753 25.5607 15.1491C25.5624 15.0589 25.5662 14.9688 25.5719 14.8786C25.6689 13.3523 26.3601 11.835 28.1101 10.8771C28.1373 10.8622 28.1645 10.8475 28.1921 10.833C28.1495 10.6627 28.1218 10.4975 28.1065 10.338C28.1064 10.3366 28.1063 10.3352 28.1061 10.3337C27.9638 8.82629 28.9324 7.82883 28.9811 7.77918C28.3397 8.88035 28.5523 10.2419 28.5523 10.2419C28.5785 10.4021 28.6149 10.5469 28.6607 10.6787C28.7132 10.83 28.778 10.9641 28.8537 11.0839C29.2274 11.6758 29.8655 11.9217 30.596 12.2031C31.2276 12.4465 31.9283 12.7166 32.5866 13.2598C32.6255 13.2917 32.6641 13.3246 32.7025 13.3586C32.9163 13.5473 33.125 13.7669 33.3244 14.026C33.1273 13.6578 33.1403 13.2641 33.1991 12.9687C33.2547 12.6906 33.3511 12.4997 33.3511 12.4997M21.6104 15.7142L22.075 16.9108C23.2654 16.5114 25.0249 16.1764 26.8028 16.1277C28.5442 16.0799 30.2202 16.3095 31.3896 16.9456L31.9691 17.7343C31.9806 17.7963 31.9921 17.8745 31.9974 17.9578C32.0115 18.1815 31.9715 18.2781 31.9551 18.2993C31.2849 19.1614 30.1934 20.7938 29.2352 23.2651C29.2251 23.2703 29.2147 23.2756 29.204 23.2808C29.148 23.3084 29.0919 23.3322 29.0414 23.3483C29.0305 23.3518 29.0205 23.3546 29.0113 23.3572L28.7 22.5804L28.1162 23.2442L28.1156 23.2448C28.1145 23.246 28.1123 23.2485 28.1091 23.252C28.1026 23.2591 28.0919 23.2708 28.0769 23.2867C28.047 23.3185 28.0005 23.3668 27.938 23.4283C27.813 23.5514 27.6249 23.7264 27.3799 23.9265C27.0649 24.1837 26.6585 24.48 26.174 24.7594C26.1822 24.715 26.1909 24.6698 26.2003 24.6238C26.327 24.0042 26.5698 23.2477 27.031 22.547C27.0588 22.5559 27.0873 22.565 27.1162 22.5739C27.2365 22.6115 27.37 22.6509 27.4905 22.6807C27.5881 22.7049 27.7463 22.7418 27.88 22.7365C28.0818 22.7286 28.3626 22.6486 28.5904 22.4145C28.7483 22.252 28.8556 22.0406 28.8995 21.7972C29.3695 21.4577 29.7846 20.9232 30.0872 20.4057C30.2816 20.0734 30.4472 19.7187 30.5625 19.3759C30.6738 19.0451 30.7563 18.6727 30.7369 18.3222L30.7067 17.7784L30.236 17.7086C28.5681 17.4615 26.0252 18.3012 24.2074 20.5953C23.0251 21.6185 21.6391 22.0142 20.0843 22.0483C18.4998 22.0832 16.7809 21.7425 14.9765 21.3376C14.738 21.2841 14.4978 21.2294 14.2565 21.1744C12.6942 20.8188 11.0811 20.4515 9.51812 20.3092C8.93937 20.2566 8.36146 20.2338 7.78891 20.2544C7.99472 20.1809 8.21306 20.1121 8.44441 20.05L8.44635 20.0494L8.44846 20.0489C9.58992 19.7322 10.7096 19.32 11.7988 18.8157L11.8009 18.8147L11.8029 18.8138C13.8538 17.8431 15.172 16.2538 16.2703 14.5361C16.6944 13.8729 17.0932 13.1779 17.4855 12.4944C17.5963 12.3013 17.7066 12.1091 17.8169 11.9189C18.3224 11.0459 18.8338 10.1977 19.4186 9.40564C19.4456 9.36915 19.4754 9.32818 19.5082 9.28342C20.4375 8.01121 23.6938 3.55362 30.2712 4.1766L30.5367 4.20175L30.7253 3.98557C31.1157 3.53797 31.5207 3.37087 32.0269 3.18531C32.0529 3.17582 32.0791 3.16626 32.1057 3.15658C32.1894 3.12608 32.2766 3.09436 32.3663 3.05974C32.2411 3.24451 32.0931 3.35888 31.8891 3.48767L31.316 3.84959L32.1459 5.15669L33.2426 6.89335C33.2528 7.00206 33.2682 7.15054 33.2904 7.31668C33.3333 7.63777 33.4096 8.09591 33.5465 8.44755C33.723 8.90045 34.2168 9.89891 34.6447 10.7447C34.8631 11.1763 35.0711 11.5817 35.2246 11.879C35.3013 12.0278 35.3644 12.1496 35.4084 12.2343C35.4304 12.2766 35.4476 12.3097 35.4593 12.3323L35.4637 12.3407C35.554 12.5538 35.6569 12.7394 35.7411 12.8877C35.7548 12.9118 35.7677 12.9345 35.78 12.9559C35.8536 13.0853 35.9017 13.1696 35.9368 13.2479C35.8215 13.3837 35.7193 13.5523 35.6758 13.7697C35.6453 13.7838 35.6124 13.7985 35.5773 13.8137C35.3325 13.92 35.0675 14.0143 34.9554 14.0421C34.4469 14.1673 34.1682 13.9684 34.0173 13.7325C33.8402 13.4555 33.7911 13.0506 33.8933 12.7216L32.8529 12.1681M21.6104 15.7142L21.6122 15.713L21.6143 15.7114C21.6154 15.7107 21.6167 15.7098 21.6179 15.7089L21.62 15.7075C21.6227 15.7056 21.626 15.7034 21.6297 15.701C21.6318 15.6995 21.634 15.698 21.6363 15.6964C21.6496 15.6875 21.6673 15.6759 21.6896 15.6618C21.7342 15.6337 21.7972 15.5957 21.8791 15.5504C22.043 15.4599 22.2822 15.3402 22.6009 15.2114C23.1584 14.9862 23.9577 14.734 25.0204 14.5615C25.1844 13.0043 25.9182 11.4863 27.5397 10.4694C27.3272 8.58092 28.5391 7.34576 28.5985 7.28519L29.4597 8.14671C29.2149 8.5669 29.124 9.0557 29.1007 9.46628C29.0893 9.66807 29.0949 9.84046 29.103 9.96023C29.1072 10.0198 29.1118 10.0655 29.1151 10.0941C29.1168 10.1085 29.1181 10.1185 29.1189 10.1238L29.1191 10.1255C29.1885 10.5435 29.3414 10.7801 29.5511 10.9618C29.7913 11.1699 30.1215 11.3203 30.5866 11.5019C30.6524 11.5276 30.72 11.5535 30.7895 11.5802C31.3548 11.7971 32.0362 12.0585 32.7048 12.5534C32.7247 12.4869 32.745 12.428 32.7635 12.3781C32.7853 12.3194 32.8054 12.2714 32.8211 12.236C32.8289 12.2183 32.8358 12.2037 32.8412 12.1923C32.8438 12.1866 32.8462 12.1817 32.8482 12.1778L32.8509 12.1723L32.852 12.17L32.8525 12.1691L32.8529 12.1681M33.3511 12.4997L32.8529 12.1681M33.3511 12.4997C32.8529 12.1681 32.8529 12.1681 32.8529 12.1681M35.6761 14.2546L35.676 14.2531" stroke="#F5B923" stroke-width="0.844646"/>
</g>
</g>
</g>
<defs>
<clipPath id="clip0_7010_1813">
<rect width="35.6267" height="28" fill="white" transform="translate(0.686523)"/>
</clipPath>
<clipPath id="clip1_7010_1813">
<rect width="35.6267" height="27.8733" fill="white" transform="translate(0.686523)"/>
</clipPath>
<clipPath id="clip2_7010_1813">
<rect width="38.0091" height="27.8733" fill="white" transform="translate(-0.504883)"/>
</clipPath>
</defs>
</svg>
