<svg width="35" height="28" viewBox="0 0 35 28" fill="none" xmlns="http://www.w3.org/2000/svg">
<g clip-path="url(#clip0_7010_1783)">
<g clip-path="url(#clip1_7010_1783)">
<g clip-path="url(#clip2_7010_1783)">
<mask id="mask0_7010_1783" style="mask-type:luminance" maskUnits="userSpaceOnUse" x="0" y="0" width="35" height="28">
<path d="M34.4233 0H0.577148V27.8733H34.4233V0Z" fill="white"/>
</mask>
<g mask="url(#mask0_7010_1783)">
<path d="M16.8613 17.7207C16.8492 17.9021 16.8039 18.0532 16.7252 18.174C16.6467 18.295 16.5288 18.3932 16.3716 18.4688C16.2387 18.5322 16.0724 18.5776 15.8728 18.6048C15.6733 18.629 15.4647 18.6412 15.2471 18.6412V19.7429H16.6708V23.3106H15.2471V24.4893H19.7539V23.3106H18.362V17.7208L16.8613 17.7207Z" fill="white"/>
<path d="M17.5005 0C16.6946 0 15.9749 2.9164 15.3229 3.39005C14.6709 3.8637 11.6743 3.64697 11.4253 4.41343C11.1762 5.17989 13.7279 6.76563 13.977 7.53194C14.2261 8.29826 13.0939 11.0809 13.7459 11.5546C14.3979 12.0282 16.6948 10.0916 17.5005 10.0916C18.3065 10.0916 20.6032 12.0282 21.2552 11.5546C21.9072 11.0809 20.775 8.2984 21.0241 7.53194C21.2732 6.76548 23.8248 5.17978 23.5758 4.41343C23.3267 3.64711 20.3304 3.8637 19.6783 3.39005C19.0263 2.9164 18.3065 0 17.5005 0Z" fill="#E4081C"/>
<path d="M23.5527 22.2554C23.5527 20.9987 24.5715 19.98 25.8281 19.98H32.1476C33.4045 19.98 34.423 20.9987 34.423 22.2554V27.8733H23.5527V22.2554Z" fill="#F7B500"/>
<path d="M11.9414 16.582C11.9414 15.3254 12.9601 14.3066 14.2168 14.3066H19.7952C21.0518 14.3066 22.0705 15.3254 22.0705 16.582V27.8733H11.9414V16.582Z" fill="#FFD300"/>
<path d="M0.577148 20.0356C0.577148 18.779 1.59587 17.7603 2.85252 17.7603H8.43091C9.68758 17.7603 10.7063 18.779 10.7063 20.0356V28.1203H0.577148V20.0356Z" fill="#E28900"/>
<path fill-rule="evenodd" clip-rule="evenodd" d="M30.5999 13.5111L30.6221 13.5066C29.8538 13.3425 29.2631 12.724 29.1334 11.9473L29.074 11.5933L29.0186 11.9229C28.8882 12.7003 28.2972 13.3185 27.5281 13.4824L27.5059 13.4871C28.2743 13.651 28.8645 14.269 28.9947 15.0457L29.0543 15.4002L29.1095 15.0704C29.2398 14.2932 29.8305 13.675 30.5999 13.5111Z" fill="#F7B500"/>
<path fill-rule="evenodd" clip-rule="evenodd" d="M6.88155 7.96428L6.89666 7.96104C6.3742 7.84926 5.97251 7.42883 5.88411 6.90049L5.84378 6.65967L5.80604 6.88385C5.71744 7.41239 5.31553 7.83305 4.79245 7.94437L4.77734 7.94762C5.3 8.05917 5.70149 8.47985 5.78989 9.00774L5.83022 9.24899L5.86773 9.02461C5.95656 8.49584 6.35847 8.07538 6.88155 7.96428Z" fill="#F7B500"/>
<path d="M15.4775 19.545L16.894 18.5552H18.2336V24.528H16.7404V20.2788L15.4775 21.1491V19.545Z" fill="#E28900"/>
<path d="M15.2305 19.2984L16.6469 18.3086H17.9865V24.2815H16.4933V20.0322L15.2305 20.9025V19.2984Z" fill="#F9B32A"/>
<path d="M4.24023 25.535V24.4769L6.21981 23.0912C6.40639 22.9593 6.54064 22.8591 6.62255 22.7909C6.70902 22.7181 6.77273 22.643 6.81368 22.5656C6.85919 22.4837 6.88194 22.3859 6.88194 22.2721C6.88194 22.1037 6.82278 21.9695 6.70446 21.8693C6.5907 21.7647 6.42914 21.7123 6.21981 21.7123C5.98772 21.7123 5.80114 21.7738 5.66007 21.8967C5.52355 22.015 5.44846 22.1811 5.43481 22.395H4.24023C4.24934 22.0901 4.32442 21.8079 4.4655 21.5485C4.60657 21.2846 4.82501 21.0707 5.1208 20.9069C5.42115 20.7385 5.79659 20.6543 6.24711 20.6543C6.63848 20.6543 6.97296 20.7203 7.25055 20.8523C7.52815 20.9842 7.73976 21.1663 7.88538 21.3983C8.03101 21.6259 8.10382 21.8853 8.10382 22.1765C8.10382 22.4132 8.06514 22.6202 7.98778 22.7977C7.91041 22.9752 7.78982 23.1413 7.62599 23.296C7.46671 23.4507 7.246 23.6259 6.96386 23.8216L6.02185 24.4769V24.5111H8.19939V25.535H4.24023Z" fill="#FFD200"/>
<path d="M3.99316 25.2884V24.2303L5.97274 22.8446C6.15932 22.7127 6.29357 22.6126 6.37548 22.5443C6.46194 22.4715 6.52566 22.3964 6.56661 22.319C6.61212 22.2371 6.63487 22.1393 6.63487 22.0255C6.63487 21.8571 6.57571 21.7229 6.45739 21.6228C6.34363 21.5181 6.18207 21.4658 5.97274 21.4658C5.74065 21.4658 5.55407 21.5272 5.413 21.6501C5.27647 21.7684 5.20139 21.9345 5.18774 22.1484H3.99316C4.00227 21.8435 4.07735 21.5613 4.21843 21.3019C4.3595 21.038 4.57794 20.8241 4.87373 20.6603C5.17408 20.4919 5.54952 20.4077 6.00004 20.4077C6.39141 20.4077 6.72589 20.4737 7.00348 20.6057C7.28108 20.7376 7.49269 20.9197 7.63831 21.1518C7.78394 21.3793 7.85675 21.6387 7.85675 21.9299C7.85675 22.1666 7.81807 22.3736 7.7407 22.5511C7.66334 22.7286 7.54275 22.8947 7.37892 23.0494C7.21964 23.2041 6.99893 23.3794 6.71679 23.575L5.77478 24.2303V24.2645H7.95231V25.2884H3.99316Z" fill="#F7B500"/>
<path d="M29.8802 23.4079C30.399 23.417 30.8017 23.5399 31.0884 23.7765C31.3751 24.0131 31.5184 24.3567 31.5184 24.8073C31.5184 25.0985 31.4434 25.3624 31.2932 25.5991C31.143 25.8357 30.9155 26.0246 30.6106 26.1656C30.3057 26.3067 29.9325 26.3773 29.4911 26.3773C29.0633 26.3773 28.6925 26.309 28.3784 26.1725C28.069 26.036 27.8301 25.8494 27.6617 25.6127C27.4933 25.3715 27.4 25.103 27.3818 24.8073H28.5628C28.581 24.9893 28.6651 25.1326 28.8153 25.2373C28.9655 25.3374 29.1839 25.3875 29.4706 25.3875C29.7436 25.3875 29.953 25.3306 30.0986 25.2168C30.2488 25.0985 30.3239 24.946 30.3239 24.7595C30.3239 24.359 30.044 24.1588 29.4843 24.1588H28.4262V23.3874L29.7163 22.5205V22.4864H27.7709V21.4966H31.2249V22.4795L29.8802 23.3738V23.4079Z" fill="#E28900"/>
<path d="M29.633 23.4079C30.1518 23.417 30.5545 23.5399 30.8412 23.7765C31.1279 24.0131 31.2713 24.3567 31.2713 24.8073C31.2713 25.0985 31.1962 25.3624 31.046 25.5991C30.8958 25.8357 30.6683 26.0246 30.3634 26.1656C30.0585 26.3067 29.6853 26.3773 29.2439 26.3773C28.8163 26.3773 28.4454 26.309 28.1314 26.1725C27.8219 26.036 27.583 25.8494 27.4146 25.6127C27.2463 25.3715 27.153 25.103 27.1348 24.8073H28.3157C28.3339 24.9893 28.4181 25.1326 28.5683 25.2373C28.7184 25.3374 28.9369 25.3875 29.2234 25.3875C29.4965 25.3875 29.7058 25.3306 29.8515 25.2168C30.0016 25.0985 30.0767 24.946 30.0767 24.7595C30.0767 24.359 29.7968 24.1588 29.2371 24.1588H28.1792V23.3874L29.4692 22.5205V22.4864H27.5239V21.4966H30.9778V22.4795L29.633 23.3738V23.4079Z" fill="#FCD842"/>
</g>
</g>
</g>
</g>
<defs>
<clipPath id="clip0_7010_1783">
<rect width="33.8467" height="28" fill="white" transform="translate(0.577148)"/>
</clipPath>
<clipPath id="clip1_7010_1783">
<rect width="33.8467" height="27.8733" fill="white" transform="translate(0.577148)"/>
</clipPath>
<clipPath id="clip2_7010_1783">
<rect width="33.8462" height="27.8733" fill="white" transform="translate(0.577148)"/>
</clipPath>
</defs>
</svg>
