<svg width="29" height="28" viewBox="0 0 29 28" fill="none" xmlns="http://www.w3.org/2000/svg">
<g clip-path="url(#clip0_7010_1805)">
<g clip-path="url(#clip1_7010_1805)">
<g clip-path="url(#clip2_7010_1805)">
<path d="M14.4832 27.8733C11.0284 27.8691 7.69829 26.5819 5.13891 24.2613C2.57952 21.9407 0.973277 18.7522 0.631766 15.3143C0.290255 11.8764 1.23783 8.43432 3.29066 5.65555C5.34349 2.8768 8.35524 0.959562 11.7417 0.275758C15.1281 -0.40805 18.6479 0.190313 21.6181 1.95478C24.5883 3.71925 26.7972 6.52403 27.8165 9.82504C28.8357 13.1261 28.5926 16.688 27.1342 19.8199C25.6758 22.9518 23.1061 25.4303 19.9237 26.7747C18.2026 27.5034 16.3521 27.8771 14.4832 27.8733ZM14.4832 1.39834C12.0105 1.39834 9.59335 2.13157 7.53745 3.5053C5.48151 4.87903 3.8791 6.83158 2.93286 9.11597C1.98662 11.4004 1.73903 13.9141 2.22142 16.3393C2.70381 18.7644 3.89451 20.9921 5.64294 22.7405C7.39138 24.4889 9.61898 25.6796 12.0441 26.162C14.4693 26.6444 16.983 26.3968 19.2674 25.4506C21.5519 24.5043 23.5044 22.9019 24.8782 20.846C26.2519 18.79 26.9851 16.3729 26.9851 13.9003C26.982 10.5855 25.6639 7.40738 23.32 5.06349C20.976 2.71959 17.7979 1.40143 14.4832 1.39834Z" fill="#F5B923"/>
<path d="M14.4888 23.2277C12.1856 23.2249 9.96555 22.3668 8.25927 20.8196C6.55301 19.2726 5.48219 17.1469 5.25451 14.8551C5.02684 12.5632 5.65856 10.2684 7.02711 8.41586C8.39566 6.56338 10.4035 5.28522 12.6611 4.82934C14.9187 4.37348 17.2652 4.77238 19.2454 5.9487C21.2255 7.12501 22.6982 8.99485 23.3777 11.1955C24.0571 13.3962 23.895 15.7709 22.9228 17.8587C21.9505 19.9467 20.2374 21.599 18.1158 22.4953C16.9684 22.9811 15.7347 23.2302 14.4888 23.2277ZM14.4888 5.57774C12.8404 5.57774 11.2289 6.06656 9.85832 6.98237C8.48765 7.89819 7.4194 9.19988 6.78857 10.7228C6.15774 12.2458 5.99269 13.9216 6.31428 15.5383C6.63587 17.1552 7.42967 18.6402 8.59527 19.8058C9.76092 20.9715 11.246 21.7653 12.8628 22.0869C14.4795 22.4084 16.1554 22.2434 17.6783 21.6126C19.2012 20.9817 20.5029 19.9135 21.4188 18.5429C22.3346 17.1722 22.8234 15.5608 22.8234 13.9124C22.8214 11.7025 21.9426 9.58375 20.38 8.02114C18.8173 6.45856 16.6986 5.5798 14.4888 5.57774Z" fill="#F5B923" stroke="#F5B923" stroke-width="0.774259"/>
<path d="M18.1797 13.2926C18.6395 13.599 18.6395 14.2746 18.1797 14.581L13.3815 17.7799C12.867 18.1229 12.1777 17.754 12.1777 17.1356V10.7379C12.1777 10.1195 12.867 9.75074 13.3815 10.0937L18.1797 13.2926Z" fill="#F5B923"/>
</g>
</g>
</g>
<defs>
<clipPath id="clip0_7010_1805">
<rect width="27.8733" height="28" fill="white" transform="translate(0.563477)"/>
</clipPath>
<clipPath id="clip1_7010_1805">
<rect width="27.8733" height="27.8733" fill="white" transform="translate(0.563477)"/>
</clipPath>
<clipPath id="clip2_7010_1805">
<rect width="27.8733" height="27.8733" fill="white" transform="translate(0.563477)"/>
</clipPath>
</defs>
</svg>
